HIERARCHY
ROOT Hips
{
	OFFSET 0.000000 0.000000 0.000000 
	CHANNELS 6 Xposition Yposition Zposition Zrotation Yrotation Xrotation
	JOINT LeftUpLeg
	{
		OFFSET 0.000000 0.000000 0.000000 
		CHANNELS 3 Zrotation Yrotation Xrotation
		JOINT LeftLeg
		{
			OFFSET 3.811170 -8.520760 0.839290 
			CHANNELS 3 Zrotation Yrotation Xrotation
			JOINT LeftFoot
			{
				OFFSET 2.562200 -7.039590 0.000000 
				CHANNELS 3 Zrotation Yrotation Xrotation
				JOINT LeftToeBase
				{
					OFFSET 0.157640 -0.433110 2.322550 
					CHANNELS 3 Zrotation Yrotation Xrotation
					End Site
					{
						OFFSET 0.000000 0.000000 0.000000 
					}
				}
			}
		}
	}
	JOINT RightUpLeg
	{
		OFFSET 0.000000 0.000000 0.000000 
		CHANNELS 3 Zrotation Yrotation Xrotation
		JOINT RightLeg
		{
			OFFSET -3.848050 -8.780180 0.839290 
			CHANNELS 3 Zrotation Yrotation Xrotation
			JOINT RightFoot
			{
				OFFSET -2.568260 -7.056230 0.000000 
				CHANNELS 3 Zrotation Yrotation Xrotation
				JOINT RightToeBase
				{
					OFFSET -0.164730 -0.452590 2.363150 
					CHANNELS 3 Zrotation Yrotation Xrotation
					End Site
					{
						OFFSET 0.000000 0.000000 0.000000 
					}
				}
			}
		}
	}
	JOINT Spine
	{
		OFFSET 0.000000 0.000000 0.000000 
		CHANNELS 3 Zrotation Yrotation Xrotation
		JOINT Spine1
		{
			OFFSET 0.084990 4.084440 -0.236130 
			CHANNELS 3 Zrotation Yrotation Xrotation
			JOINT Neck
			{
				OFFSET 0.000000 0.000000 0.000000 
				CHANNELS 3 Zrotation Yrotation Xrotation
				JOINT Head
				{
					OFFSET 0.049900 3.507600 0.048050 
					CHANNELS 3 Zrotation Yrotation Xrotation
					End Site
					{
						OFFSET 0.000000 0.000000 0.000000 
					}
				}
			}
			JOINT LeftArm
			{
				OFFSET 0.000001 0.000000 0.000000 
				CHANNELS 3 Zrotation Yrotation Xrotation
				JOINT LeftForeArm
				{
					OFFSET 4.050000 1.200890 -0.311210 
					CHANNELS 3 Zrotation Yrotation Xrotation
					JOINT LeftHand
					{
						OFFSET 3.483560 -0.000000 -0.000000 
						CHANNELS 3 Zrotation Yrotation Xrotation
						JOINT LeftFingerBase
						{
							OFFSET 0.000000 0.000000 0.000000 
							CHANNELS 3 Zrotation Yrotation Xrotation
							End Site
							{
								OFFSET 0.000000 0.000000 0.000000 
							}
						}
					}
				}
			}
			JOINT RightArm
			{
				OFFSET 0.000000 0.000000 0.000000 
				CHANNELS 3 Zrotation Yrotation Xrotation
				JOINT RightForeArm
				{
					OFFSET -3.978500 1.374050 -0.404650 
					CHANNELS 3 Zrotation Yrotation Xrotation
					JOINT RightHand
					{
						OFFSET -3.444170 -0.000000 -0.000000 
						CHANNELS 3 Zrotation Yrotation Xrotation
						JOINT RightFingerBase
						{
							OFFSET 0.000000 0.000000 0.000000 
							CHANNELS 3 Zrotation Yrotation Xrotation
							End Site
							{
								OFFSET 0.000000 0.000000 0.000000 
							}
						}
					}
				}
			}
		}
	}
}
MOTION
Frames: 18
Frame Time: 0.008333
2.913120 15.553120 -7.227408 -3.944919 -20.433395 -5.621521 -14.698977 16.749456 -19.678581 5.175248 8.574382 33.303577 -0.699385 -2.828547 -16.771458 0.000000 0.000000 0.000000 16.981752 -20.980545 4.473112 -7.526180 -5.031197 43.614681 0.463013 14.072986 -38.340168 0.000000 0.000000 0.000000 4.544856 3.681156 4.021174 3.894317 1.076522 -5.709708 -1.483573 0.973168 -2.209113 0.000000 0.000000 0.000000 -53.398453 -49.389153 17.779215 87.224953 -65.355751 -0.000000 0.000000 0.000000 0.000000 0.000000 0.000000 0.000000 73.125679 50.826675 35.487099 -81.585419 55.693958 0.000000 0.000000 0.000000 0.000000 0.000000 0.000000 0.000000 
2.918375 15.540730 -7.203617 -4.033188 -20.409388 -5.650755 -14.692625 16.686440 -19.926949 5.307082 8.629395 33.468929 -0.722519 -2.718007 -16.738892 0.000000 0.000000 0.000000 16.929804 -20.926174 4.525188 -7.483483 -5.088494 43.787685 0.503522 14.025641 -38.324360 0.000000 0.000000 0.000000 4.552193 3.686850 4.048395 3.935765 1.082856 -5.727443 -1.466345 0.971981 -2.199526 0.000000 0.000000 0.000000 -53.607742 -49.345978 17.885855 87.506371 -65.540733 -0.000000 0.000000 0.000000 0.000000 0.000000 0.000000 0.000000 73.225861 50.748734 35.419243 -81.229980 55.732063 0.000000 0.000000 0.000000 0.000000 0.000000 0.000000 0.000000 
2.923631 15.528339 -7.179826 -4.121779 -20.386049 -5.679218 -14.684865 16.621010 -20.177568 5.438266 8.684567 33.633389 -0.746144 -2.605888 -16.704123 0.000000 0.000000 0.000000 16.878551 -20.870728 4.576149 -7.440512 -5.145961 43.960144 0.543901 13.978036 -38.307255 0.000000 0.000000 0.000000 4.559795 3.692939 4.074892 3.977132 1.089463 -5.745137 -1.448977 0.970760 -2.189819 0.000000 0.000000 0.000000 -53.816387 -49.302483 17.993160 87.787781 -65.724571 -0.000000 0.000000 0.000000 0.000000 0.000000 0.000000 0.000000 73.325516 50.670761 35.351212 -80.873810 55.768482 0.000000 0.000000 0.000000 0.000000 0.000000 0.000000 0.000000 
2.928886 15.515949 -7.156034 -4.210679 -20.363396 -5.706915 -14.675644 16.553196 -20.430435 5.568773 8.739918 33.796928 -0.770264 -2.492191 -16.667149 0.000000 0.000000 0.000000 16.827986 -20.814207 4.625993 -7.397278 -5.203592 44.132053 0.584143 13.930175 -38.288853 0.000000 0.000000 0.000000 4.567655 3.699436 4.100663 4.018418 1.096347 -5.762788 -1.431469 0.969506 -2.179985 0.000000 0.000000 0.000000 -54.024368 -49.258678 18.101147 88.069122 -65.907234 -0.000000 0.000000 0.000000 0.000000 0.000000 0.000000 0.000000 73.424652 50.592766 35.283005 -80.516922 55.803196 0.000000 0.000000 0.000000 0.000000 0.000000 0.000000 0.000000 
2.934142 15.503558 -7.132243 -4.299877 -20.341442 -5.733850 -14.664918 16.483023 -20.685543 5.698577 8.795466 33.959507 -0.794879 -2.376913 -16.627972 0.000000 0.000000 0.000000 16.778101 -20.756618 4.674719 -7.353791 -5.261383 44.303410 0.624243 13.882061 -38.269154 0.000000 0.000000 0.000000 4.575761 3.706351 4.125705 4.059623 1.103513 -5.780392 -1.413821 0.968219 -2.170019 0.000000 0.000000 0.000000 -54.231697 -49.214558 18.209850 88.350334 -66.088692 -0.000000 0.000000 0.000000 0.000000 0.000000 0.000000 0.000000 73.523262 50.514755 35.214622 -80.159363 55.836201 0.000000 0.000000 0.000000 0.000000 0.000000 0.000000 0.000000 
2.942630 15.493425 -7.103895 -4.370782 -20.390360 -5.740311 -14.640106 16.368950 -20.937452 5.882852 8.835435 34.202217 -0.820249 -2.259358 -16.561756 0.000000 0.000000 0.000000 16.702915 -20.685684 4.712826 -7.313620 -5.285393 44.429485 0.638171 13.883137 -38.254227 0.000000 0.000000 0.000000 4.596766 3.742461 4.145114 4.083054 1.118533 -5.794183 -1.395499 0.963303 -2.159718 0.000000 0.000000 0.000000 -54.421074 -49.084290 18.395706 89.232414 -66.208168 -0.000000 0.000000 0.000000 0.000000 0.000000 0.000000 0.000000 73.640350 50.381512 35.175789 -79.937256 55.849682 0.000000 0.000000 0.000000 0.000000 0.000000 0.000000 0.000000 
2.951150 15.483313 -7.075503 -4.441576 -20.440891 -5.745852 -14.612038 16.251328 -21.191557 6.065556 8.875565 34.445072 -0.846183 -2.139774 -16.493025 0.000000 0.000000 0.000000 16.627911 -20.613224 4.749305 -7.273510 -5.309191 44.554756 0.651629 13.884517 -38.238171 0.000000 0.000000 0.000000 4.617996 3.779294 4.163423 4.106168 1.133914 -5.807038 -1.377013 0.958343 -2.149101 0.000000 0.000000 0.000000 -54.608353 -48.954021 18.592445 90.125702 -66.310776 -0.000000 0.000000 0.000000 0.000000 0.000000 0.000000 0.000000 73.756485 50.248077 35.136078 -79.716263 55.861736 0.000000 0.000000 0.000000 0.000000 0.000000 0.000000 0.000000 
2.959670 15.473201 -7.047111 -4.512421 -20.492388 -5.750668 -14.580747 16.130608 -21.447910 6.246108 8.916048 34.687260 -0.872680 -2.018162 -16.422022 0.000000 0.000000 0.000000 16.553316 -20.539341 4.784244 -7.233436 -5.333100 44.679646 0.664862 13.885729 -38.220921 0.000000 0.000000 0.000000 4.639313 3.816553 4.180676 4.129147 1.149565 -5.818951 -1.358371 0.953375 -2.138191 0.000000 0.000000 0.000000 -54.793613 -48.824539 18.799839 91.024002 -66.396393 -0.000000 0.000000 0.000000 0.000000 0.000000 0.000000 0.000000 73.871483 50.115082 35.095200 -79.495087 55.872536 0.000000 0.000000 0.000000 0.000000 0.000000 0.000000 0.000000 
2.968189 15.463089 -7.018719 -4.583301 -20.544865 -5.754763 -14.546161 16.006844 -21.706507 6.424467 8.956922 34.928749 -0.899738 -1.894522 -16.348755 0.000000 0.000000 0.000000 16.479130 -20.464041 4.817635 -7.193403 -5.357115 44.804153 0.677867 13.886776 -38.202480 0.000000 0.000000 0.000000 4.660700 3.854214 4.196880 4.152000 1.165466 -5.829892 -1.339575 0.948398 -2.127015 0.000000 0.000000 0.000000 -54.976780 -48.695786 19.018320 91.926826 -66.464409 -0.000000 0.000000 0.000000 0.000000 0.000000 0.000000 0.000000 73.985344 49.982605 35.053139 -79.273750 55.882092 0.000000 0.000000 0.000000 0.000000 0.000000 0.000000 0.000000 
2.980408 15.456050 -6.985269 -4.622681 -20.699013 -5.726316 -14.471798 15.859402 -21.932167 6.599460 8.964555 35.159580 -0.915200 -1.814558 -16.267853 0.000000 0.000000 0.000000 16.374392 -20.358952 4.829243 -7.160029 -5.331009 44.886219 0.657453 13.953416 -38.198959 0.000000 0.000000 0.000000 4.687363 3.921384 4.205987 4.150936 1.191722 -5.832677 -1.324936 0.938367 -2.113835 0.000000 0.000000 0.000000 -55.105392 -48.475441 19.374901 93.488487 -66.333733 -0.000000 0.000000 0.000000 0.000000 0.000000 0.000000 0.000000 74.102348 49.828552 35.021477 -79.149117 55.903873 0.000000 0.000000 0.000000 0.000000 0.000000 0.000000 0.000000 
2.992698 15.449071 -6.951721 -4.661158 -20.856339 -5.696578 -14.392231 15.708545 -22.159147 6.770777 8.972600 35.390514 -0.930745 -1.733687 -16.184738 0.000000 0.000000 0.000000 16.268715 -20.251053 4.838002 -7.126539 -5.304228 44.967400 0.636398 14.021040 -38.194668 0.000000 0.000000 0.000000 4.713735 3.988653 4.213697 4.149563 1.217869 -5.832228 -1.310318 0.928168 -2.101427 0.000000 0.000000 0.000000 -55.227592 -48.254967 19.765862 95.066689 -66.146088 -0.000000 0.000000 0.000000 0.000000 0.000000 0.000000 0.000000 74.217491 49.677109 34.987389 -79.026421 55.924721 0.000000 0.000000 0.000000 0.000000 0.000000 0.000000 0.000000 
3.004989 15.442091 -6.918173 -4.699321 -21.014915 -5.666102 -14.308103 15.554743 -22.388203 6.938372 8.981772 35.621735 -0.946606 -1.651016 -16.099525 0.000000 0.000000 0.000000 16.162724 -20.140862 4.844195 -7.092798 -5.277758 45.048515 0.615356 14.088363 -38.189289 0.000000 0.000000 0.000000 4.739660 4.055285 4.220259 4.148370 1.243632 -5.828826 -1.295625 0.917895 -2.090159 0.000000 0.000000 0.000000 -55.344189 -48.035686 20.188202 96.644859 -65.904945 -0.000000 0.000000 0.000000 0.000000 0.000000 0.000000 0.000000 74.330986 49.528828 34.950714 -78.903824 55.944553 0.000000 0.000000 0.000000 0.000000 0.000000 0.000000 0.000000 
3.017280 15.435112 -6.884626 -4.737147 -21.174776 -5.634812 -14.219362 15.398068 -22.619406 7.102192 8.992131 35.853203 -0.962780 -1.566536 -16.012222 0.000000 0.000000 0.000000 16.056427 -20.028351 4.847709 -7.058800 -5.251606 45.129562 0.594329 14.155379 -38.182823 0.000000 0.000000 0.000000 4.765082 4.121127 4.225803 4.147371 1.268953 -5.822711 -1.280843 0.907541 -2.080353 0.000000 0.000000 0.000000 -55.455132 -47.817078 20.640533 98.218903 -65.611458 -0.000000 0.000000 0.000000 0.000000 0.000000 0.000000 0.000000 74.443130 49.383698 34.911568 -78.781372 55.963554 0.000000 0.000000 0.000000 0.000000 0.000000 0.000000 0.000000 
3.033536 15.431846 -6.846380 -4.737511 -21.466862 -5.565036 -14.071387 15.249509 -22.801010 7.235336 8.973341 36.013920 -0.960583 -1.541229 -15.937014 0.000000 0.000000 0.000000 15.928825 -19.880924 4.822411 -7.051246 -5.157130 45.162884 0.535878 14.290501 -38.172443 0.000000 0.000000 0.000000 4.787226 4.196753 4.229261 4.118925 1.297102 -5.809313 -1.274519 0.894308 -2.071709 0.000000 0.000000 0.000000 -55.449966 -47.618668 21.311703 100.188179 -64.843498 -0.000000 0.000000 0.000000 0.000000 0.000000 0.000000 0.000000 74.565575 49.264435 34.863708 -78.706772 56.029957 0.000000 0.000000 0.000000 0.000000 0.000000 0.000000 0.000000 
3.049908 15.428690 -6.807996 -4.736088 -21.764444 -5.492599 -13.917121 15.098741 -22.983242 7.363443 8.955728 36.173817 -0.958033 -1.516150 -15.860605 0.000000 0.000000 0.000000 15.799458 -19.728683 4.791239 -7.043089 -5.061505 45.195179 0.476863 14.427031 -38.160805 0.000000 0.000000 0.000000 4.807663 4.270917 4.232234 4.090289 1.324558 -5.794646 -1.268521 0.880802 -2.067235 0.000000 0.000000 0.000000 -55.435703 -47.418877 22.004904 102.112816 -64.015656 -0.000000 0.000000 0.000000 0.000000 0.000000 0.000000 0.000000 74.688324 49.148899 34.813675 -78.634079 56.097878 0.000000 0.000000 0.000000 0.000000 0.000000 0.000000 0.000000 
3.066281 15.425533 -6.769611 -4.733936 -22.063601 -5.418523 -13.758186 14.945465 -23.167740 7.487239 8.940260 36.334972 -0.955677 -1.489490 -15.782588 0.000000 0.000000 0.000000 15.668884 -19.572588 4.754775 -7.033484 -4.966812 45.227844 0.418419 14.562921 -38.147972 0.000000 0.000000 0.000000 4.826406 4.343506 4.234752 4.062140 1.351418 -5.779846 -1.262544 0.867111 -2.066610 0.000000 0.000000 0.000000 -55.417305 -47.216614 22.705053 103.971817 -63.153034 -0.000000 0.000000 0.000000 0.000000 0.000000 0.000000 0.000000 74.811363 49.035397 34.762104 -78.561829 56.166042 0.000000 0.000000 0.000000 0.000000 0.000000 0.000000 0.000000 
3.082654 15.422377 -6.731227 -4.731023 -22.364260 -5.342786 -13.594584 14.789717 -23.354549 7.606670 8.926991 36.497372 -0.953516 -1.461241 -15.702968 0.000000 0.000000 0.000000 15.537054 -19.412670 4.712937 -7.022392 -4.873093 45.260880 0.360567 14.698147 -38.133945 0.000000 0.000000 0.000000 4.843440 4.414808 4.236725 4.034315 1.377903 -5.765725 -1.256547 0.853251 -2.069239 0.000000 0.000000 0.000000 -55.396523 -47.011650 23.403675 105.758942 -62.267757 -0.000000 0.000000 0.000000 0.000000 0.000000 0.000000 0.000000 74.934883 48.922947 34.709377 -78.489952 56.234482 0.000000 0.000000 0.000000 0.000000 0.000000 0.000000 0.000000 
3.103030 15.422951 -6.689039 -4.693323 -22.814138 -5.225831 -13.365253 14.667734 -23.495358 7.704516 8.906986 36.572414 -0.935753 -1.473303 -15.658649 0.000000 0.000000 0.000000 15.404142 -19.227264 4.637220 -7.064193 -4.698183 45.241337 0.265027 14.892493 -38.081432 0.000000 0.000000 0.000000 4.851053 4.514914 4.243645 3.970494 1.413596 -5.757086 -1.256238 0.837777 -2.072532 0.000000 0.000000 0.000000 -55.215771 -46.754719 24.136385 107.726646 -61.135742 -0.000000 0.000000 0.000000 0.000000 0.000000 0.000000 0.000000 75.090027 48.799667 34.642300 -78.423500 56.368862 0.000000 0.000000 0.000000 0.000000 0.000000 0.000000 0.000000 
